<?xml version="1.0" standalone="no"?>
<!DOCTYPE svg PUBLIC "-//W3C//DTD SVG 20010904//EN"
 "http://www.w3.org/TR/2001/REC-SVG-20010904/DTD/svg10.dtd">
<svg version="1.0" xmlns="http://www.w3.org/2000/svg"
 width="138.000000pt" height="138.000000pt" viewBox="0 0 138.000000 138.000000"
 preserveAspectRatio="xMidYMid meet">
<metadata>
Created by potrace 1.14, written by Peter Selinger 2001-2017
</metadata>
<g transform="translate(0.000000,138.000000) scale(0.100000,-0.100000)"
fill="#000000" stroke="none">
<path d="M253 1059 c-7 -7 -33 -12 -59 -13 l-48 -1 -73 -105 -72 -105 2 -200
2 -200 64 0 64 0 23 65 c23 68 27 69 24 8 -2 -47 8 -79 23 -77 29 3 80 -2 74
-7 -10 -10 20 -60 49 -83 55 -43 152 -13 174 54 8 24 18 35 31 35 10 0 20 -4
20 -10 8 -60 58 -100 125 -100 28 0 44 8 70 34 19 19 34 43 34 54 0 19 7 21
98 24 116 4 156 -2 160 -22 14 -75 104 -114 173 -73 27 16 62 70 53 84 -2 3
17 9 43 12 68 7 73 19 73 168 l0 128 -97 101 c-54 56 -109 108 -123 115 -16 8
-59 13 -110 13 -110 0 -106 -1 -106 22 0 18 7 20 87 20 72 0 88 3 93 17 4 9 1
20 -6 24 -7 5 -85 8 -173 8 -98 1 -161 5 -163 11 -5 13 -42 13 -42 0 0 -14
-106 -12 -130 3 -17 10 -22 9 -29 -2 -11 -18 -103 -16 -132 2 -17 10 -22 9
-32 -3 -13 -17 -105 -16 -121 1 -13 12 -30 11 -43 -2z m954 -223 c41 -41 70
-77 66 -79 -17 -11 -162 -5 -166 7 -3 9 -2 117 2 139 3 19 30 1 98 -67z m-768
-362 c26 -33 27 -58 1 -84 -38 -38 -100 -20 -114 33 -5 22 -1 33 18 52 33 33
69 32 95 -1z m271 8 c45 -36 17 -112 -42 -112 -15 0 -37 9 -48 20 -59 59 25
145 90 92z m486 -8 c43 -42 15 -104 -48 -104 -57 0 -83 66 -43 110 25 27 61
25 91 -6z"/>
</g>
</svg>
